<svg aria-hidden="true" xmlns="http://www.w3.org/2000/svg" xmlns:xlink="http://www.w3.org/1999/xlink"><symbol viewBox="0 0 30 30" id="footer-icon-call" xmlns="http://www.w3.org/2000/svg">
<path d="M22.7082 17.9747C21.8686 17.7941 21.2044 18.1839 20.6162 18.5244C20.0139 18.8752 18.8686 19.8043 18.2121 19.5666C14.851 18.1827 11.6899 15.2408 10.3214 11.8662C10.0802 11.1957 11.005 10.0431 11.3532 9.43371C11.6911 8.84377 12.0729 8.17327 11.8988 7.32736C11.7414 6.5672 9.70621 3.97747 8.98654 3.2693C8.5119 2.80151 8.02566 2.54422 7.52654 2.50263C5.64994 2.42207 3.55409 4.92605 3.18651 5.52507C2.26562 6.8024 2.27079 8.50203 3.20199 10.5629C5.44616 16.0984 13.934 24.4523 19.4902 26.7808C20.5156 27.2603 21.4532 27.5007 22.2955 27.5007C23.1196 27.5007 23.8535 27.2707 24.4843 26.8147C24.9601 26.5404 27.5667 24.3406 27.4984 22.4136C27.4571 21.9223 27.2005 21.4312 26.7388 20.9556C26.0358 20.2292 23.4627 18.1333 22.7082 17.9747Z"/>
</symbol><symbol viewBox="0 0 30 30" id="footer-icon-facebook" xmlns="http://www.w3.org/2000/svg">
<path d="M16.7462 26.2462V16.0012H20.2025L20.7162 11.9899H16.7462V9.43494C16.7462 8.27744 17.0687 7.48494 18.73 7.48494H20.835V3.90869C19.8112 3.79869 18.7812 3.74619 17.7512 3.74994C14.6962 3.74994 12.5987 5.61494 12.5987 9.03869V11.9824H9.16499V15.9937H12.6062V26.2462H16.7462Z"/>
</symbol><symbol viewBox="0 0 30 30" id="footer-icon-instagram" xmlns="http://www.w3.org/2000/svg">
<path d="M26.1837 10.3813C26.17 9.43507 25.995 8.49632 25.66 7.61132C25.0737 6.10007 23.88 4.90507 22.3687 4.32007C21.495 3.99132 20.5712 3.81507 19.6362 3.79507C18.4337 3.74132 18.0525 3.72632 15 3.72632C11.9475 3.72632 11.5562 3.72632 10.3625 3.79507C9.42875 3.81507 8.505 3.99132 7.63125 4.32007C6.12 4.90507 4.925 6.10007 4.34 7.61132C4.01125 8.48507 3.83375 9.40882 3.81625 10.3426C3.7625 11.5463 3.74625 11.9276 3.74625 14.9801C3.74625 18.0326 3.74625 18.4226 3.81625 19.6176C3.835 20.5526 4.01125 21.4751 4.34 22.3513C4.92625 23.8613 6.12 25.0563 7.6325 25.6413C8.5025 25.9813 9.42625 26.1738 10.3637 26.2038C11.5675 26.2576 11.9487 26.2738 15.0012 26.2738C18.0537 26.2738 18.445 26.2738 19.6387 26.2038C20.5725 26.1851 21.4962 26.0088 22.3712 25.6801C23.8825 25.0938 25.0762 23.8988 25.6625 22.3888C25.9912 21.5138 26.1675 20.5913 26.1862 19.6551C26.24 18.4526 26.2562 18.0713 26.2562 15.0176C26.2537 11.9651 26.2537 11.5776 26.1837 10.3813ZM14.9925 20.7526C11.8 20.7526 9.21375 18.1663 9.21375 14.9738C9.21375 11.7813 11.8 9.19507 14.9925 9.19507C18.1825 9.19507 20.7712 11.7813 20.7712 14.9738C20.7712 18.1663 18.1825 20.7526 14.9925 20.7526ZM21.0012 10.3288C20.255 10.3288 19.6537 9.72632 19.6537 8.98132C19.6537 8.23632 20.255 7.63382 21.0012 7.63382C21.745 7.63382 22.3475 8.23632 22.3475 8.98132C22.3475 9.72632 21.745 10.3288 21.0012 10.3288Z"/>
<path d="M14.9925 18.7275C17.0656 18.7275 18.7462 17.0469 18.7462 14.9737C18.7462 12.9006 17.0656 11.22 14.9925 11.22C12.9194 11.22 11.2387 12.9006 11.2387 14.9737C11.2387 17.0469 12.9194 18.7275 14.9925 18.7275Z"/>
</symbol><symbol viewBox="0 0 30 30" id="footer-icon-linkedin" xmlns="http://www.w3.org/2000/svg">
<path d="M6.22874 8.99637C7.73924 8.99637 8.96374 7.77187 8.96374 6.26137C8.96374 4.75087 7.73924 3.52637 6.22874 3.52637C4.71824 3.52637 3.49374 4.75087 3.49374 6.26137C3.49374 7.77187 4.71824 8.99637 6.22874 8.99637Z"/>
<path d="M11.5462 11.0688V26.2426H16.2575V18.7388C16.2575 16.7588 16.63 14.8413 19.085 14.8413C21.5062 14.8413 21.5362 17.1051 21.5362 18.8638V26.2438H26.25V17.9226C26.25 13.8351 25.37 10.6938 20.5925 10.6938C18.2987 10.6938 16.7612 11.9526 16.1325 13.1438H16.0687V11.0688H11.5462ZM3.86874 11.0688H8.58749V26.2426H3.86874V11.0688Z"/>
</symbol><symbol viewBox="0 0 28 28" id="footer-icon-mail" xmlns="http://www.w3.org/2000/svg">
<path d="M18.1429 15.1621L15.7979 17.5151C14.8469 18.4694 13.1737 18.49 12.2021 17.5151L9.85699 15.1621L1.43423 23.6122C1.74776 23.7572 2.09344 23.8437 2.46094 23.8437H25.5391C25.9066 23.8437 26.2521 23.7573 26.5655 23.6123L18.1429 15.1621Z"/>
<path d="M25.5391 4.15625H2.46094C2.09344 4.15625 1.74776 4.24277 1.43434 4.38774L10.4346 13.4179C10.4352 13.4185 10.436 13.4186 10.4366 13.4192C10.4372 13.4198 10.4373 13.4206 10.4373 13.4206L13.3638 16.3568C13.6746 16.6677 14.3255 16.6677 14.6363 16.3568L17.5622 13.4211C17.5622 13.4211 17.5629 13.4198 17.5635 13.4192C17.5635 13.4192 17.5649 13.4185 17.5655 13.4179L26.5655 4.38769C26.2521 4.24266 25.9066 4.15625 25.5391 4.15625Z"/>
<path d="M0.261734 5.53491C0.0995312 5.86293 0 6.22704 0 6.61707V21.3827C0 21.7727 0.0994219 22.1368 0.26168 22.4648L8.69903 14.0002L0.261734 5.53491Z"/>
<path d="M27.7383 5.53491L19.301 14.0003L27.7383 22.4651C27.9005 22.1371 28 21.7729 28 21.3828V6.61718C28 6.22704 27.9005 5.86293 27.7383 5.53491Z"/>
</symbol><symbol viewBox="0 0 30 30" id="footer-icon-twitter" xmlns="http://www.w3.org/2000/svg">
<path d="M24.5412 9.99618C24.5575 10.2149 24.5575 10.4324 24.5575 10.6499C24.5575 17.3062 19.4912 24.9762 10.2325 24.9762C7.38 24.9762 4.73 24.1499 2.5 22.7149C2.905 22.7612 3.295 22.7774 3.71625 22.7774C6.07 22.7774 8.23625 21.9824 9.9675 20.6262C7.75375 20.5799 5.89875 19.1299 5.25875 17.1349C5.57 17.1812 5.8825 17.2124 6.21 17.2124C6.66125 17.2124 7.115 17.1499 7.53625 17.0412C5.2275 16.5737 3.49875 14.5474 3.49875 12.0999V12.0374C4.17 12.4112 4.94875 12.6449 5.77375 12.6762C4.4175 11.7737 3.52875 10.2299 3.52875 8.48368C3.52875 7.54868 3.7775 6.69118 4.21375 5.94368C6.6925 8.99743 10.4187 10.9937 14.5963 11.2124C14.5188 10.8374 14.4712 10.4487 14.4712 10.0587C14.4712 7.28368 16.7162 5.02368 19.5062 5.02368C20.9562 5.02368 22.265 5.63118 23.185 6.61368C24.3225 6.39493 25.4125 5.97368 26.38 5.39743C26.0063 6.56618 25.21 7.54868 24.1663 8.17243C25.18 8.06243 26.1625 7.78243 27.065 7.39243C26.38 8.38993 25.5237 9.27868 24.5412 9.99618Z"/>
</symbol><symbol viewBox="0 0 30 30" id="icon-arrow" xmlns="http://www.w3.org/2000/svg">
<path d="M6.25 15H23.75" stroke-width="3" stroke-linecap="round" stroke-linejoin="round"/>
<path d="M15 6.25L23.75 15L15 23.75" stroke-width="3" stroke-linecap="round" stroke-linejoin="round"/>
</symbol><symbol viewBox="0 0 24 24" id="icon-basket" xmlns="http://www.w3.org/2000/svg">
<path d="M8.13201 2.50391L4.42001 8.99991H3.00001C2.68801 8.99991 2.39501 9.14591 2.20501 9.39291C2.01601 9.64091 1.95301 9.96291 2.03501 10.2629L4.83401 20.5259C5.07001 21.3939 5.86401 21.9999 6.76401 21.9999H17.237C18.135 21.9999 18.929 21.3949 19.167 20.5249L21.966 10.2619C22.048 9.96191 21.986 9.63991 21.796 9.39191C21.605 9.14591 21.312 8.99991 21 8.99991H19.58L15.868 2.50391L14.132 3.49591L17.277 8.99991H6.72301L9.86801 3.49591L8.13201 2.50391ZM14 12.9999H16V17.9999H14V12.9999ZM8.00001 12.9999H10V17.9999H8.00001V12.9999Z"/>
</symbol><symbol viewBox="0 0 150 150" id="icon-catering" xmlns="http://www.w3.org/2000/svg">
<path d="M125.625 78.7087C124.944 77.9296 124.367 77.0796 123.892 76.1821C123.658 100.304 103.965 119.857 79.7891 119.857C55.4681 119.857 35.6811 100.07 35.6811 75.7488C35.6811 51.4279 55.4681 31.6409 79.7891 31.6409C100.711 31.6409 118.278 46.2847 122.779 65.8604L126.773 36.1669L126.863 35.4993C115.489 22.2161 98.6066 13.7828 79.7891 13.7828C65.1083 13.7828 51.6058 18.918 40.9772 27.4822V28.1234V28.691V41.268V41.7673C40.9772 50.1681 36.6231 57.8378 29.7335 62.2204V111.382V112.229C41.0142 127.665 59.2485 137.714 79.7891 137.714C101.373 137.714 120.412 126.619 131.51 109.834V108.926V82.594C129.259 81.8615 127.218 80.5307 125.625 78.7087Z"/>
<path d="M79.7891 39.1372C59.6013 39.1372 43.177 55.5611 43.177 75.7493C43.177 95.9376 59.6008 112.361 79.7891 112.361C99.9774 112.361 116.401 95.9376 116.401 75.7493C116.401 55.5611 99.9769 39.1372 79.7891 39.1372Z"/>
<path d="M149.833 7.23393C149.833 4.0437 147.247 1.45764 144.057 1.45764C141.164 1.45764 138.718 3.59695 138.332 6.46386L129.892 69.2034C129.67 70.855 130.172 72.5216 131.268 73.7759C132.365 75.0302 133.95 75.7493 135.617 75.7493H139.006V143.045C139.006 146.081 141.467 148.542 144.503 148.542C147.538 148.542 149.999 146.081 149.999 143.045L149.833 7.23393Z"/>
<path d="M33.4814 8.45372C33.4814 6.38338 31.8038 4.70581 29.7334 4.70581C27.6631 4.70581 25.9855 6.38338 25.9855 8.45372V29.1917H20.4886V8.45372C20.4886 6.38338 18.811 4.70581 16.7407 4.70581C14.6703 4.70581 12.9928 6.38338 12.9928 8.45372V29.1917H7.49583V8.45372C7.49583 6.38338 5.81826 4.70581 3.74791 4.70581C1.67757 4.70581 0 6.38338 0 8.45372V42.2679C0 49.5733 4.70588 55.7969 11.2437 58.0771V143.045C11.2437 146.081 13.7049 148.542 16.7407 148.542C19.7765 148.542 22.2376 146.081 22.2376 143.045V58.0771C28.7755 55.7969 33.4814 49.5733 33.4814 42.2679V8.45372Z"/>
</symbol><symbol viewBox="0 0 150 150" id="icon-cream" xmlns="http://www.w3.org/2000/svg">
<g clip-path="url(#jclip0_1_112)">
<path d="M116.158 51.6431C114.487 50.5733 113.615 48.6526 113.937 46.7507C118.043 22.3889 99.2328 0.345636 75.0324 0.0040446C49.8344 -0.3535 30.5414 22.3538 35.0644 47.2453C35.4022 49.1156 34.6421 51.0331 33.1281 52.1279C28.9395 55.1591 26.6247 60.058 26.9375 65.2254C27.754 78.7148 44.6458 84.2447 53.3326 74.0623C53.4546 74.1374 53.5797 74.2156 53.7017 74.2879C54.978 75.0605 55.7381 76.3803 55.7381 77.8195V84.2853C55.7381 86.7378 56.711 89.0273 58.4784 90.7321C64.1099 96.165 73.656 92.2689 73.656 84.1289V69.4765C73.656 65.9073 77.8227 64.0148 80.3627 66.4832C81.1385 67.2371 81.5639 68.2443 81.5639 69.3201V76.8276C81.5639 81.8523 85.7127 85.9598 90.8513 85.7837C97.6049 85.5331 99.0407 80.4284 99.413 76.5523C109.14 83.4198 122.636 76.7237 123.08 64.866C123.277 59.5666 120.625 54.4991 116.158 51.6431ZM68.3382 20.8908C66.2014 21.6028 66.0666 21.9791 65.1256 21.9791C62.4501 21.9791 61.6559 18.3308 64.0683 17.2087C64.9442 16.8021 65.8513 16.4423 66.7679 16.1389C68.0817 15.7041 69.4956 16.4173 69.9304 17.7311C70.3621 19.0421 69.652 20.4588 68.3382 20.8908ZM52.6601 37.1223C51.0356 37.1223 49.8397 35.6021 50.2264 34.0224C51.1179 30.4 52.8446 26.9528 55.2282 24.0593C56.1041 22.9926 57.6838 22.8393 58.7505 23.7152C59.8172 24.5942 59.9705 26.1708 59.0915 27.2375C57.1833 29.5585 55.8007 32.3144 55.0875 35.2173C54.8091 36.3594 53.7862 37.1223 52.6601 37.1223ZM104.392 83.97C105.863 84.2469 106.714 85.799 106.163 87.1907L83.7752 143.717C80.4644 152.093 68.4499 152.097 65.1378 143.717L42.8168 87.3653C42.245 85.922 43.1831 84.337 44.7209 84.1227C45.7316 83.9816 46.736 83.7636 47.7239 83.4664C49.176 83.0297 50.6612 84.0126 50.8054 85.5219C51.0387 87.9646 51.9174 91.3608 55.0027 94.336C62.6694 101.729 74.8312 97.99 77.9259 88.7379C78.4586 87.1451 80.4134 86.617 81.7181 87.6743C87.8239 92.6227 97.5251 91.6677 101.927 84.9554C102.415 84.2121 103.333 83.7705 104.392 83.97Z"/>
</g>
<defs>
<clipPath id="jclip0_1_112">
<rect width="150" height="150"/>
</clipPath>
</defs>
</symbol><symbol viewBox="0 0 150 150" id="icon-food" xmlns="http://www.w3.org/2000/svg">
<g clip-path="url(#kclip0_1_99)">
<path d="M45.3188 104.313C41.3523 102.038 38.6721 97.7634 38.6721 92.8711C38.6721 72.678 55.1001 56.25 75.2932 56.25H90.3845L91.0952 44.5312H5.58496L11.727 145.871C11.8678 148.191 13.7892 150 16.1135 150H43.0781C40.3132 146.325 38.6721 141.759 38.6721 136.816C38.6721 131.118 42.3068 126.254 47.3788 124.417C45.5809 121.66 44.5315 118.373 44.5315 114.844C44.5315 111.311 45.5832 108.021 47.3845 105.262C45.9517 104.939 45.1563 104.622 45.3188 104.313Z"/>
<path d="M48.3353 35.7433C48.3387 35.7433 48.3421 35.7422 48.3456 35.7422H92.2852C94.7124 35.7422 96.6797 33.7749 96.6797 31.3477C96.6797 28.9204 94.7124 26.9531 92.2852 26.9531H56.4526L68.2983 8.78906H83.4961C85.9234 8.78906 87.8906 6.82182 87.8906 4.39453C87.8906 1.96724 85.9234 0 83.4961 0H65.918C64.4325 0 63.0478 0.749588 62.2375 1.99356L45.9595 26.9531H4.39453C1.96724 26.9531 0 28.9204 0 31.3477C0 33.7749 1.96724 35.7422 4.39453 35.7422H48.3192C48.325 35.7422 48.3307 35.7433 48.3353 35.7433Z"/>
<path d="M47.4609 92.8711C47.4609 95.2984 49.4282 97.2656 51.8555 97.2656H145.605C148.033 97.2656 150 95.2984 150 92.8711C150 77.5246 137.514 65.0391 122.168 65.0391H75.293C59.9464 65.0391 47.4609 77.5246 47.4609 92.8711Z"/>
<path d="M62.1094 106.055C57.2548 106.055 53.3203 109.989 53.3203 114.844C53.3203 119.698 57.2548 123.633 62.1094 123.633H135.352C140.206 123.633 144.141 119.698 144.141 114.844C144.141 109.989 140.206 106.055 135.352 106.055H62.1094Z"/>
<path d="M145.605 132.422H51.8555C49.4282 132.422 47.4609 134.389 47.4609 136.816C47.4609 144.086 53.3752 150 60.6445 150H136.816C144.086 150 150 144.086 150 136.816C150 134.389 148.033 132.422 145.605 132.422Z"/>
</g>
<defs>
<clipPath id="kclip0_1_99">
<rect width="150" height="150"/>
</clipPath>
</defs>
</symbol><symbol viewBox="0 0 36 36" id="icon-star" xmlns="http://www.w3.org/2000/svg">
<g clip-path="url(#mclip0_1_44)">
<path d="M26.385 21.39C26.2644 21.5136 26.1722 21.662 26.115 21.825C26.0772 21.9979 26.0772 22.177 26.115 22.35L27 28.245C27.0789 28.705 27.0269 29.178 26.85 29.61C26.6703 30.0464 26.3681 30.4215 25.98 30.69C25.5952 30.9604 25.1441 31.1211 24.675 31.155C24.2077 31.1741 23.7446 31.0597 23.34 30.825L18.555 28.17C18.3948 28.0798 18.2138 28.0333 18.03 28.035C17.8414 28.0334 17.6556 28.0799 17.49 28.17L12.735 30.825C12.3206 31.047 11.8549 31.1557 11.385 31.14C11.0371 31.1172 10.6979 31.0221 10.3889 30.8607C10.0799 30.6993 9.80796 30.4752 9.59054 30.2027C9.37311 29.9302 9.21495 29.6154 9.12618 29.2783C9.0374 28.9411 9.01997 28.5892 9.07498 28.245L10.035 22.35C10.0801 22.1779 10.0801 21.9971 10.035 21.825C9.98895 21.6604 9.9011 21.5105 9.77998 21.39L5.56498 17.145C5.25041 16.8129 5.02807 16.4044 4.91998 15.96C4.80017 15.518 4.80017 15.052 4.91998 14.61C5.08599 14.1743 5.36568 13.791 5.72998 13.5C6.08184 13.2037 6.5065 13.0069 6.95998 12.93L12.495 12.09C12.6736 12.0578 12.8427 11.9861 12.99 11.88C13.136 11.7686 13.2541 11.6248 13.335 11.46L15.735 6.29998C15.9339 5.87007 16.2513 5.50582 16.65 5.24998C17.0514 4.99517 17.517 4.85986 17.9925 4.85986C18.4679 4.85986 18.9336 4.99517 19.335 5.24998C19.7337 5.50582 20.0511 5.87007 20.25 6.29998L22.665 11.46C22.7411 11.6278 22.8601 11.7727 23.01 11.88C23.1556 11.989 23.3254 12.061 23.505 12.09L29.04 12.93C29.4935 13.0069 29.9181 13.2037 30.27 13.5C30.6145 13.8026 30.8731 14.1906 31.02 14.625C31.1398 15.067 31.1398 15.533 31.02 15.975C30.9119 16.4194 30.6896 16.8279 30.375 17.16L26.385 21.39Z"/>
</g>
<defs>
<clipPath id="mclip0_1_44">
<rect width="36" height="36"/>
</clipPath>
</defs>
</symbol><symbol viewBox="0 0 24 24" id="icon-star-gold" xmlns="http://www.w3.org/2000/svg">
<path d="M21.947 9.179C21.818 8.801 21.477 8.534 21.079 8.503L15.378 8.05L12.911 2.589C12.75 2.23 12.393 2 12 2C11.607 2 11.25 2.23 11.089 2.588L8.62199 8.05L2.92099 8.503C2.52999 8.534 2.19299 8.791 2.05999 9.16C1.92699 9.529 2.02099 9.942 2.30199 10.216L6.51499 14.323L5.02499 20.775C4.93299 21.174 5.09399 21.589 5.43099 21.822C5.60299 21.94 5.80099 22 5.99999 22C6.19299 22 6.38699 21.944 6.55499 21.832L12 18.202L17.445 21.832C17.793 22.064 18.25 22.055 18.59 21.808C18.928 21.561 19.077 21.128 18.962 20.726L17.133 14.326L21.669 10.244C21.966 9.976 22.075 9.558 21.947 9.179Z"/>
</symbol></svg>