<svg width="528" height="563" viewBox="0 0 528 563" fill="none" xmlns="http://www.w3.org/2000/svg">
<mask id="mask0_1_35" style="mask-type:alpha" maskUnits="userSpaceOnUse" x="4" y="0" width="524" height="563">
<path d="M376.5 99.5C372.5 90.7 353.833 45.1667 345 23.5C370.333 15.6667 422.8 0 430 0C439 0 469 23.5 480 37C491 50.5 519 87.5 525.5 99.5C532 111.5 522.5 212 519 231C515.5 250 459.5 337.5 451 352C442.5 366.5 332.5 455 312 461.5C291.5 468 124 562 108.5 562.5C96.0998 562.9 71.9997 479.833 50.4997 472L10.9997 444.5C9.66637 429.667 6.5997 395.1 4.9997 375.5C2.9997 351 10.9997 304 10.9997 302C10.9997 300.4 23.333 264.333 29.4997 246.5L50.4997 222L73.4997 259L76.4997 262.5L81.9997 291.5C104 308.833 149.1 343.3 153.5 342.5C157.9 341.7 214.333 338.833 242 337.5L328 314.5L409 184.5C399.833 159.833 380.5 108.3 376.5 99.5Z" fill="#D9D9D9"/>
</mask>
<g mask="url(#mask0_1_35)">
<path d="M347.819 64.5597C405.629 55.616 448.208 69.0713 470.091 98.391C491.966 127.699 493.049 172.754 468.042 226.625C443.035 280.496 396.716 332.884 342.141 374.02C287.543 415.172 224.916 444.904 167.107 453.848C109.298 462.791 66.7191 449.336 44.8355 420.016C22.9606 390.708 21.8772 345.653 46.8846 291.782C71.8919 237.912 118.21 185.523 172.786 144.387C227.383 103.235 290.01 73.5034 347.819 64.5597Z" stroke="#1B1B1D" stroke-width="3"/>
<path d="M347.819 94.5597C405.628 85.616 448.207 99.0713 470.091 128.391C491.966 157.699 493.049 202.754 468.042 256.625C443.034 310.496 396.716 362.884 342.14 404.02C287.543 445.172 224.916 474.904 167.107 483.848C109.298 492.791 66.7186 479.336 44.835 450.016C22.9602 420.708 21.8767 375.653 46.8841 321.782C71.8915 267.912 118.21 215.523 172.785 174.387C227.383 133.235 290.01 103.503 347.819 94.5597Z" stroke="#1B1B1D" stroke-width="3"/>
</g>
</svg>
